<?xml version="1.0" encoding="UTF-8"?>
<svg xmlns="http://www.w3.org/2000/svg" id="Layer_1" data-name="Layer 1" viewBox="0 0 24 24">
  <path d="m19,0H5C2.243,0,0,2.243,0,5v14c0,2.757,2.243,5,5,5h14c2.757,0,5-2.243,5-5V5c0-2.757-2.243-5-5-5Zm3,19c0,1.654-1.346,3-3,3H5c-1.654,0-3-1.346-3-3V5c0-1.654,1.346-3,3-3h14c1.654,0,3,1.346,3,3v14Zm-3-13v3c0,1.103-.897,2-2,2h-3c-.553,0-1-.448-1-1s.447-1,1-1h1.984c-.934-1.235-2.399-2-3.984-2-2.116,0-4.011,1.339-4.715,3.333-.146.411-.531.667-.943.667-.11,0-.223-.019-.333-.058-.521-.184-.794-.755-.61-1.276.986-2.792,3.64-4.667,6.602-4.667,1.913,0,3.702.801,5,2.127v-1.127c0-.552.447-1,1-1s1,.448,1,1Zm-.398,8.333c-.986,2.792-3.64,4.667-6.602,4.667-1.913,0-3.702-.801-5-2.127v1.127c0,.552-.447,1-1,1s-1-.448-1-1v-3c0-1.103.897-2,2-2h3c.553,0,1,.448,1,1s-.447,1-1,1h-1.984c.934,1.235,2.399,2,3.984,2,2.116,0,4.011-1.339,4.715-3.333.185-.521.755-.794,1.276-.61.521.184.794.755.61,1.276Z"/>
</svg>
